<svg data-v-0dd9719b="" version="1.0" xmlns="http://www.w3.org/2000/svg" xmlns:xlink="http://www.w3.org/1999/xlink" width="100%" height="100%" viewBox="0 0 340.000000 250.000000" preserveAspectRatio="xMidYMid meet" color-interpolation-filters="sRGB" style="margin: auto;">   <g data-v-0dd9719b="" fill="#333" class="icon-text-wrapper icon-svg-group iconsvg" transform="translate(95.02897644042969,72.25141143798828)"><g class="iconsvg-imagesvg" transform="translate(44.97102355957031,0)"><g><rect fill="#333" fill-opacity="0" stroke-width="2" x="0" y="0" width="60" height="57.43990350096212" class="image-rect"></rect> <svg x="0" y="0" width="60" height="57.43990350096212" filtersec="colorsb4848362258" class="image-svg-svg primary" style="overflow: visible;"><svg xmlns="http://www.w3.org/2000/svg" viewBox="-0.004363085608929396 -0.0019378167344257236 99.56594848632812 95.31719207763672"><title>资源 53</title><path d="M75.22 65.07c.3.38.73.24 1.11.24h21.29c1.83 0 1.89.06 1.9 1.89v7.09c0 1.1-.43 1.52-1.5 1.48H42.71c-2.56 0-3.48.72-4.11 3.25a26.29 26.29 0 0 1-1.29 3.1c-.78 2-.39 2.66 1.76 2.66h58.81c1.09 0 1.64.42 1.64 1.56v7.33a1.14 1.14 0 0 1-1.23 1.29H36.47c-1.8 0-3.6.25-5.39.32-2.95.11-5.92-.06-8.88-.2-1 0-1.48-.83-1-1.85 1.08-2.17 1.57-4.54 2.55-6.73.91-2 1.59-4.17 2.39-6.25.94-2.46 1.91-4.92 2.83-7.38.85-2.24 1.53-4.55 2.5-6.73 1.09-2.45 1.78-5 2.86-7.49.78-1.78 1.5-3.62 2.11-5.48.87-2.62 2-5.14 2.88-7.75.82-2.37 1.78-4.69 2.68-7s1.57-4.62 2.61-6.83c.18-.38.53-.73.3-1.22a3.82 3.82 0 0 1 2.33-1c2.28.05 4.57 0 6.86 0a2.05 2.05 0 0 1 2 2.51 16.06 16.06 0 0 1-1 3.07c-.88 2.13-1.69 4.3-2.51 6.47-1 2.54-1.88 5.09-2.84 7.63-.77 2-1.64 4-2.35 6-1 2.79-2 5.58-3.15 8.29-.6 1.4-.24 2.1 1.29 2.13h7.34a2.76 2.76 0 0 0 1.51-.3 64 64 0 0 0 9.39 0 7.4 7.4 0 0 0 1 .26 50.94 50.94 0 0 0 8.82.09 2.15 2.15 0 0 0 1.62-.45z" fill="#fa1d7b"></path><path d="M54.41 65.16a2.76 2.76 0 0 1-1.51.3h-7.34c-1.53 0-1.89-.73-1.29-2.13 1.18-2.71 2.18-5.5 3.15-8.29.71-2 1.58-4 2.35-6 1-2.54 1.88-5.09 2.84-7.63.82-2.17 1.63-4.34 2.51-6.47a16.06 16.06 0 0 0 1-3.07 2.05 2.05 0 0 0-2-2.51h-6.86a3.82 3.82 0 0 0-2.33 1h-8.36a5.09 5.09 0 0 0-.93.18 2.28 2.28 0 0 0-2.15-1.05h-6.85a3 3 0 0 0-2.48.94 8.17 8.17 0 0 0-2.26-.19H2.06C.13 30.16 0 30 0 28.12v-5.65c0-3.06-.24-2.9 2.84-2.9h51.85c1.48 0 3 0 4.45.07 1.26.05 1.47-1 1.79-1.8.84-2 1.52-4.1 2.26-6.15.45-1.25.27-1.46-1.07-1.36-.8.05-1.61 0-2.41 0H1.37A1 1 0 0 1 .24 9.22V1.64a.88.88 0 0 1 1-1h62.57c4.35 0 8.7-.17 13-.16 1.86 0 1.87.12 1.21 1.79-1.06 2.67-1.92 5.41-3 8.06-1.18 2.82-2.13 5.72-3.33 8.54-1 2.36-1.81 4.82-2.69 7.25C68.32 28 67.55 30 66.8 32s-1.4 3.64-2.08 5.46c-.75 2-1.47 4-2.21 5.94-1 2.72-2.06 5.44-3.1 8.15-.72 1.9-1.57 3.76-2.18 5.7-.83 2.65-2.23 5.12-2.82 7.91zM75.22 65.07a2.15 2.15 0 0 1-1.57.44 50.94 50.94 0 0 1-8.82-.09 7.4 7.4 0 0 1-1-.26C64.18 63 65.24 61 66 58.9c.63-1.8 1.38-3.54 2-5.33.78-2.11 1.57-4.23 2.41-6.32.77-1.91 1.4-3.88 2.12-5.81s1.37-3.71 2.17-5.52c.43-1 .7-2 1.11-3 1.23-3 2.3-6 3.42-9 .72-1.91 1.51-3.81 2.1-5.79.51-1.68 1.33-3.29 1.94-5C84 11.08 84.74 9 85.61 6.94s1.32-4 2.33-5.85A2 2 0 0 1 89.81 0h8.55c1.06 0 1.49.74 1 1.71A65.27 65.27 0 0 0 96.91 8c-1 2.68-2.12 5.29-3.14 8-.72 1.88-1.32 3.81-2 5.7s-1.6 3.81-2.25 5.76-1.39 3.53-2 5.31c-.76 2-1.48 4.1-2.33 6.11-.76 1.79-1.33 3.65-2 5.47-.77 2-1.59 4-2.36 6.09-.7 1.81-1.37 3.63-2 5.45s-1.47 3.94-2.21 5.91z" fill="#27d8b0"></path><path d="M24.17 30.36a3 3 0 0 1 2.48-.94h6.85a2.28 2.28 0 0 1 2.15 1.05c-.87 3.58-2.52 6.89-3.71 10.35-1.32 3.82-2.82 7.56-4.23 11.34-.87 2.34-1.73 4.72-2.69 7-1 2.51-2 5.06-2.87 7.62-1.13 3.2-2.32 6.38-3.6 9.53-1.44 3.54-2.74 7.15-4.09 10.72a44.76 44.76 0 0 0-2.28 6.31A1.92 1.92 0 0 1 10.44 95a53 53 0 0 1-9 0c-1.08 0-1.39-.77-.98-1.77 1.78-4.32 3.31-8.73 5-13.08C6.29 78 7 75.79 8 73.67s1.67-4.57 2.52-6.85 1.69-4.31 2.51-6.47c1.13-3 2.14-6 3.37-9 1.48-3.54 2.73-7.16 4.15-10.72 1.27-3.18 2.29-6.46 3.66-9.61a.75.75 0 0 0-.04-.66z" fill="#fa1d7b"></path></svg></svg> <!----></g></g> <g transform="translate(0,64.43990325927734)"><g data-gra="path-name" fill-rule="" class="tp-name iconsvg-namesvg"><g transform="scale(1)"><g><path d="M4.34-40.9L4.34-40.9Q4.57-41.02 6.33-41.02L6.33-41.02 31.76-41.02Q32.75-41.02 33.16-39.84L33.16-39.84Q33.46-38.85 32.81-37.68L32.81-37.68Q12.77-12.83 5.57-3.69L5.57-3.69Q4.98-2.58 6.5-2.4L6.5-2.4 31.99-2.4Q33.75-2.4 33.93-2.34L33.93-2.34Q34.63-1.88 34.45-0.82L34.45-0.82Q34.51-0.53 33.98-0.18L33.98-0.18Q33.81-0.12 32.05-0.12L32.05-0.12 5.04-0.12 3.87-0.29Q2.17-0.7 2.23-1.99L2.23-1.99Q2.29-2.93 3.34-4.34L3.34-4.34Q14.47-18.4 25.43-32.46L25.43-32.46Q27.25-34.8 29.18-37.15L29.18-37.15Q30.06-38.32 29.18-38.67L29.18-38.67Q28.95-38.73 27.54-38.73L27.54-38.73 6.56-38.73Q4.8-38.73 4.63-38.79L4.63-38.79Q3.87-39.14 4.04-40.2L4.04-40.2Q4.16-40.72 4.34-40.9ZM49.86-40.08L49.86-40.08Q57.83-42.54 64.98-39.08L64.98-39.08Q72.01-35.16 73.95-28.54L73.95-28.54Q74-26.78 72.13-26.95L72.13-26.95Q71.25-27.36 71.07-28.13L71.07-28.13Q69.84-31 68.5-32.81L68.5-32.81Q66.8-35.04 63.98-36.91L63.98-36.91Q58.13-39.84 51.62-37.85L51.62-37.85Q45.94-35.51 42.71-30.59L42.71-30.59Q37.44-19.1 43.54-9.14L43.54-9.14Q45.41-6.5 47.87-5.16L47.87-5.16Q55.25-0.82 63.75-3.52L63.75-3.52Q66.56-4.39 68.32-6.68L68.32-6.68Q71.07-10.02 71.37-14.24L71.37-14.24 71.37-17.58Q71.13-18.93 69.9-19.04L69.9-19.04 58.83-19.04Q57.07-19.04 56.78-19.16L56.78-19.16Q55.9-19.8 56.25-20.68L56.25-20.68Q56.54-21.27 57.19-21.39L57.19-21.39 72.25-21.39Q73.42-21.33 73.95-20.1L73.95-20.1Q74.06-19.8 74.06-18.05L74.06-18.05Q74.06-13.42 73.65-11.78L73.65-11.78Q72.19-5.92 67.56-2.58L67.56-2.58Q62.29 0.29 55.96-0.23L55.96-0.23Q50.39-0.53 45.41-3.52L45.41-3.52Q42.95-4.92 40.84-8.03L40.84-8.03Q38.5-12.01 37.68-17.4L37.68-17.4Q36.97-24.02 39.55-30.35L39.55-30.35Q40.61-32.58 42.71-35.04L42.71-35.04Q46-38.96 49.86-40.08ZM88.13-40.08L88.13-40.08Q96.09-42.54 103.24-39.08L103.24-39.08Q110.27-35.16 112.21-28.54L112.21-28.54Q112.27-26.78 110.39-26.95L110.39-26.95Q109.51-27.36 109.34-28.13L109.34-28.13Q108.11-31 106.76-32.81L106.76-32.81Q105.06-35.04 102.25-36.91L102.25-36.91Q96.39-39.84 89.88-37.85L89.88-37.85Q84.2-35.51 80.98-30.59L80.98-30.59Q75.7-19.1 81.8-9.14L81.8-9.14Q83.67-6.5 86.13-5.16L86.13-5.16Q93.52-0.82 102.01-3.52L102.01-3.52Q104.82-4.39 106.58-6.68L106.58-6.68Q109.34-10.02 109.63-14.24L109.63-14.24 109.63-17.58Q109.39-18.93 108.16-19.04L108.16-19.04 97.09-19.04Q95.33-19.04 95.04-19.16L95.04-19.16Q94.16-19.8 94.51-20.68L94.51-20.68Q94.8-21.27 95.45-21.39L95.45-21.39 110.51-21.39Q111.68-21.33 112.21-20.1L112.21-20.1Q112.32-19.8 112.32-18.05L112.32-18.05Q112.32-13.42 111.91-11.78L111.91-11.78Q110.45-5.92 105.82-2.58L105.82-2.58Q100.55 0.29 94.22-0.23L94.22-0.23Q88.65-0.53 83.67-3.52L83.67-3.52Q81.21-4.92 79.1-8.03L79.1-8.03Q76.76-12.01 75.94-17.4L75.94-17.4Q75.23-24.02 77.81-30.35L77.81-30.35Q78.87-32.58 80.98-35.04L80.98-35.04Q84.26-38.96 88.13-40.08ZM144.32-41.13L144.32-41.13Q145.78-41.31 145.66-39.55L145.66-39.55 145.66-14.71Q145.61-12.42 144.96-10.02L144.96-10.02Q143.91-4.92 137.99-1.88L137.99-1.88Q133.95 0.12 129.96-0.12L129.96-0.12Q124.63-0.41 120.59-3.69L120.59-3.69Q114.96-8.26 114.67-14.94L114.67-14.94 114.67-38.14Q114.67-39.9 114.84-40.43L114.84-40.43Q115.14-41.02 115.84-41.13L115.84-41.13Q117.07-40.96 117.01-39.84L117.01-39.84 117.01-15.7Q117.25-13.24 118.18-11.02L118.18-11.02Q119.88-6.97 123.98-4.57L123.98-4.57Q129.43-1.99 133.95-3.16L133.95-3.16Q138.28-4.04 141.04-7.91L141.04-7.91Q143.09-11.13 143.32-14.88L143.32-14.88 143.32-38.09Q143.32-39.84 143.55-40.43L143.55-40.43Q143.79-41.02 144.32-41.13ZM149.82-2.87L149.82-40.02Q150.12-40.96 151.05-40.96L151.05-40.96Q151.76-40.84 152.05-40.25L152.05-40.25Q152.17-39.96 152.17-38.32L152.17-38.32 152.17-2.75Q152.17-1 152.05-0.64L152.05-0.64Q151.82-0.23 151.29-0.12L151.29-0.12Q150.47 0.06 149.94-0.82L149.94-0.82Q149.82-1.11 149.82-2.87L149.82-2.87Z" transform="translate(-2.227954387664795, 41.14670181274414)"></path></g> <!----> <!----> <!----> <!----> <!----> <!----> <!----></g></g> <!----></g></g><defs v-gra="od"></defs></svg>